<svg xmlns="http://www.w3.org/2000/svg" width="38" height="28" viewBox="0 0 38 28" fill="none">
<g clip-path="url(#clip0_29_187)">
<path d="M24.0624 27.6095C16.597 27.6095 10.5234 21.5442 10.5234 14.089C10.5234 12.2719 11.9987 10.7986 13.8184 10.7986C15.6381 10.7986 17.1133 12.2719 17.1133 14.089C17.1133 17.9156 20.2306 21.0286 24.0624 21.0286C27.894 21.0286 31.0112 17.9156 31.0112 14.089V9.48053C31.0112 7.66331 32.4865 6.19006 34.3062 6.19006C36.1257 6.19006 37.6011 7.66331 37.6011 9.48053V14.089C37.6011 21.5442 31.5275 27.6095 24.0624 27.6095Z" fill="currentColor"/>
<path d="M3.57474 22.0827C1.75503 22.0827 0.279785 20.6095 0.279785 18.7923V14.1837C0.279785 6.72857 6.35331 0.663391 13.8185 0.663391C21.284 0.663391 27.3574 6.72857 27.3574 14.1837C27.3574 16.001 25.8822 17.4741 24.0625 17.4741C22.2428 17.4741 20.7676 16.001 20.7676 14.1837C20.7676 10.3572 17.6503 7.2442 13.8185 7.2442C9.98693 7.2442 6.86969 10.3572 6.86969 14.1837V18.7923C6.86969 20.6095 5.39444 22.0827 3.57474 22.0827Z" fill="currentColor"/>
</g>
<defs>
<clipPath id="clip0_29_187">
<rect width="37.7365" height="27.2325" fill="white" transform="translate(0 0.383728)"/>
</clipPath>
</defs>
</svg>